<svg width="15" height="30" viewBox="0 0 15 30" fill="none" xmlns="http://www.w3.org/2000/svg">
<path d="M0.378886 27.5035C-0.171491 28.1226 -0.11572 29.0707 0.503454 29.6211C1.12263 30.1715 2.07074 30.1157 2.62111 29.4965L0.378886 27.5035ZM13.5 15L14.6211 15.9965C15.1263 15.4282 15.1263 14.5718 14.6211 14.0035L13.5 15ZM2.62111 0.503452C2.07074 -0.115722 1.12263 -0.171493 0.503454 0.378884C-0.11572 0.929261 -0.171491 1.87737 0.378886 2.49654L2.62111 0.503452ZM2.62111 29.4965L14.6211 15.9965L12.3789 14.0035L0.378886 27.5035L2.62111 29.4965ZM14.6211 14.0035L2.62111 0.503452L0.378886 2.49654L12.3789 15.9965L14.6211 14.0035Z" fill="#0DDEFF"/>
</svg>
