<svg width="70" height="70" viewBox="0 0 70 70" fill="none" xmlns="http://www.w3.org/2000/svg">
<circle cx="36.5" cy="32.5" r="32.5" fill="#0DDEFF"/>
<g filter="url(#filter0_d)">
<circle cx="35" cy="31" r="31" fill="white"/>
</g>
<path d="M50.6303 15.9888C50.3594 15.8761 50.0475 15.9384 49.8407 16.146L46.8288 19.158C43.5969 15.8316 39.2792 14 34.67 14C33.695 14 32.7116 14.0851 31.7479 14.2524C25.1875 15.3926 19.872 20.3039 18.2066 26.765C18.1505 26.982 18.1983 27.2124 18.3352 27.3895C18.4725 27.5666 18.6836 27.6702 18.9078 27.6702H23.5214C23.8253 27.6702 24.0973 27.4804 24.2016 27.1946C25.5522 23.5028 28.9072 20.6857 32.7486 20.0182C33.3813 19.9084 34.0253 19.853 34.6639 19.853C37.7164 19.853 40.5672 21.075 42.6929 23.2938L39.6342 26.3521C39.4274 26.5593 39.3655 26.8708 39.477 27.1414C39.5896 27.4123 39.8533 27.5887 40.1463 27.5887H50.3532C50.7531 27.5887 51.0776 27.2641 51.0776 26.8643V16.6578C51.0776 16.3651 50.9005 16.1011 50.6303 15.9888Z" fill="#0DDEFF"/>
<path d="M50.1691 34.4014H45.5558C45.252 34.4014 44.9799 34.5908 44.8756 34.8766C43.525 38.5684 40.1701 41.3859 36.3287 42.053C35.6955 42.1628 35.0519 42.2182 34.4134 42.2182C31.3609 42.2182 28.5097 40.9961 26.3844 38.7774L29.4427 35.719C29.6499 35.5118 29.7118 35.2004 29.5999 34.9298C29.4876 34.6589 29.2236 34.4825 28.9306 34.4825H18.7244C18.3245 34.4825 18 34.807 18 35.2069V45.4138C18 45.7068 18.1764 45.9708 18.4473 46.0831C18.7175 46.1954 19.0293 46.1331 19.2365 45.9256L22.2485 42.9139C25.48 46.2399 29.7976 48.0719 34.4069 48.0719C35.3823 48.0719 36.3656 47.9868 37.3294 47.8194C43.8894 46.68 49.2053 41.768 50.8706 35.3068C50.9268 35.0895 50.8789 34.8599 50.7424 34.6821C50.6048 34.5053 50.3932 34.4014 50.1691 34.4014Z" fill="#0DDEFF"/>
<defs>
<filter id="filter0_d" x="0" y="0" width="70" height="70" filterUnits="userSpaceOnUse" color-interpolation-filters="sRGB">
<feFlood flood-opacity="0" result="BackgroundImageFix"/>
<feColorMatrix in="SourceAlpha" type="matrix" values="0 0 0 0 0 0 0 0 0 0 0 0 0 0 0 0 0 0 127 0"/>
<feOffset dy="4"/>
<feGaussianBlur stdDeviation="2"/>
<feColorMatrix type="matrix" values="0 0 0 0 0 0 0 0 0 0 0 0 0 0 0 0 0 0 0.25 0"/>
<feBlend mode="normal" in2="BackgroundImageFix" result="effect1_dropShadow"/>
<feBlend mode="normal" in="SourceGraphic" in2="effect1_dropShadow" result="shape"/>
</filter>
</defs>
</svg>
