<svg width="70" height="70" viewBox="0 0 70 70" fill="none" xmlns="http://www.w3.org/2000/svg">
<circle cx="36.5" cy="32.5" r="32.5" fill="#0DDEFF"/>
<g filter="url(#filter0_d)">
<circle cx="35" cy="31" r="31" fill="white"/>
</g>
<path d="M43.9844 30.4811C43.9844 30.7938 43.8598 31.0815 43.623 31.2941L42.1524 32.6199C41.0931 33.5705 40.4949 34.9338 40.4949 36.3471V38.3358C35.9836 38.4358 30.9737 38.5484 26.8237 38.6485C26.8611 38.5359 26.8861 38.4233 26.911 38.3108C26.9359 38.1982 26.9484 38.0856 26.9733 37.9731C27.0107 37.7604 27.0231 37.5603 27.0231 37.3477C27.0231 34.9713 25.0915 33.0326 22.7236 33.0326C20.3558 33.0326 18.4241 34.9713 18.4241 37.3477C18.4241 37.6229 18.4491 37.898 18.4989 38.1607C18.5238 38.2733 18.5488 38.3858 18.5737 38.4859C18.5986 38.5984 18.636 38.711 18.6734 38.8111C18.287 38.8236 18.0752 38.8236 18.0503 38.8236C18.0503 38.8236 17.6265 38.8861 17.0657 38.8861C15.2836 38.8861 14.2243 38.3483 14 37.3102L14.0125 37.2476V33.3829L14.0872 33.2953C14.0872 33.2953 14.2368 33.0702 14.3116 32.5198C14.3863 31.8319 14.9222 31.2441 15.2462 31.0064C15.3958 30.4936 16.1809 29.1929 20.2686 28.3799C23.1598 27.8045 24.0945 27.4668 24.3936 27.3168L24.5681 27.1542C24.8048 26.929 30.5251 21.6634 37.8155 21.801C38.7751 21.826 39.6724 21.8635 40.5074 21.9261V24.6026C40.5074 26.0285 41.1056 27.3793 42.1649 28.3299L43.6354 29.6556C43.8598 29.8683 43.9844 30.1559 43.9844 30.4811Z" fill="#0DDEFF"/>
<path d="M19.396 38.8111C19.9568 40.0994 21.2405 40.9999 22.7235 40.9999C24.2688 40.9999 25.5898 40.0244 26.1132 38.6611C26.1506 38.5485 26.188 38.4359 26.2254 38.3234C26.2503 38.2108 26.2752 38.0982 26.3002 37.9857C26.3376 37.773 26.3625 37.5604 26.3625 37.3353C26.3625 35.3216 24.7299 33.6831 22.7235 33.6831C20.717 33.6831 19.0845 35.3216 19.0845 37.3353C19.0845 37.6104 19.1219 37.8731 19.1717 38.1357C19.1966 38.2483 19.2216 38.3609 19.2589 38.4609C19.3088 38.586 19.3462 38.6986 19.396 38.8111Z" fill="#0DDEFF"/>
<path d="M54.5399 39.1989H53.6675V36.3472C53.6675 34.9213 53.0693 33.5705 52.01 32.62L50.5395 31.2942C50.3027 31.0816 50.1781 30.7939 50.1781 30.4812C50.1781 30.1685 50.3027 29.8809 50.5395 29.6682L52.01 28.3424C53.0568 27.3919 53.6675 26.0286 53.6675 24.6152V21.751H54.5399C55.0259 21.751 55.4122 21.3633 55.4122 20.8755C55.4122 20.3877 55.0259 20 54.5399 20H40.6194C40.1334 20 39.7471 20.3877 39.7471 20.8755C39.7471 21.3633 40.1334 21.751 40.6194 21.751H41.4918V24.6027C41.4918 26.0286 42.09 27.3794 43.1493 28.3299L44.6198 29.6557C44.8566 29.8683 44.9813 30.156 44.9813 30.4687C44.9813 30.7814 44.8566 31.0691 44.6198 31.2817L43.1493 32.6075C42.1025 33.558 41.4918 34.9213 41.4918 36.3347V39.1864H40.6194C40.1334 39.1864 39.7471 39.5741 39.7471 40.0619C39.7471 40.5497 40.1334 40.9374 40.6194 40.9374H54.5399C55.0259 40.9374 55.4122 40.5497 55.4122 40.0619C55.4122 39.5991 55.0259 39.1989 54.5399 39.1989Z" fill="#0DDEFF"/>
<defs>
<filter id="filter0_d" x="0" y="0" width="70" height="70" filterUnits="userSpaceOnUse" color-interpolation-filters="sRGB">
<feFlood flood-opacity="0" result="BackgroundImageFix"/>
<feColorMatrix in="SourceAlpha" type="matrix" values="0 0 0 0 0 0 0 0 0 0 0 0 0 0 0 0 0 0 127 0"/>
<feOffset dy="4"/>
<feGaussianBlur stdDeviation="2"/>
<feColorMatrix type="matrix" values="0 0 0 0 0 0 0 0 0 0 0 0 0 0 0 0 0 0 0.25 0"/>
<feBlend mode="normal" in2="BackgroundImageFix" result="effect1_dropShadow"/>
<feBlend mode="normal" in="SourceGraphic" in2="effect1_dropShadow" result="shape"/>
</filter>
</defs>
</svg>
