<svg width="70" height="70" viewBox="0 0 70 70" fill="none" xmlns="http://www.w3.org/2000/svg">
<circle cx="36.5" cy="32.5" r="32.5" fill="#0DDEFF"/>
<g filter="url(#filter0_d)">
<circle cx="35" cy="31" r="31" fill="white"/>
</g>
<path d="M36.8934 23.4812C32.6587 27.6165 32.6587 34.3082 36.8806 38.4436C33.5313 38.5188 30.1435 38.5939 27.192 38.6566C27.2305 38.5438 27.2562 38.431 27.2818 38.3183C27.3075 38.2055 27.3203 38.0927 27.346 37.9799C27.3845 37.7669 27.3973 37.5664 27.3973 37.3533C27.3973 34.9724 25.4083 33.03 22.9701 33.03C20.5319 33.03 18.5429 34.9724 18.5429 37.3533C18.5429 37.629 18.5685 37.9047 18.6199 38.1679C18.6455 38.2807 18.6712 38.3934 18.6969 38.4937C18.7225 38.6065 18.761 38.7193 18.7995 38.8195C18.4017 38.832 18.1836 38.832 18.1579 38.832C18.1579 38.832 17.7216 38.8947 17.1441 38.8947C15.3091 38.8947 14.2183 38.3559 13.9873 37.3158L14.0001 37.2531V33.3684L14.0771 33.2807C14.0771 33.2807 14.2311 33.0551 14.3081 32.5037C14.3851 31.827 14.9369 31.2381 15.2706 30.9874C15.4246 30.4736 16.233 29.1704 20.4421 28.3559C23.4192 27.7794 24.3817 27.4411 24.6897 27.2907L24.8693 27.1278C25.1131 26.9022 31.0033 21.6265 38.5103 21.7644C38.7285 21.7644 38.9338 21.7769 39.1391 21.7769C38.3307 22.2406 37.5864 22.8045 36.8934 23.4812Z" fill="#0DDEFF"/>
<path d="M26.7167 37.3533C26.7167 37.5789 26.6911 37.7919 26.6526 38.005C26.6269 38.1177 26.6012 38.2305 26.5756 38.3433C26.5371 38.4561 26.5114 38.5689 26.4601 38.6816C25.9211 40.0476 24.5609 41.025 22.9696 41.025C21.4297 41.025 20.108 40.1227 19.5433 38.832C19.492 38.7192 19.4535 38.619 19.415 38.5062C19.3765 38.3934 19.3508 38.2932 19.3252 38.1804C19.261 37.9172 19.2354 37.6541 19.2354 37.3784C19.2354 35.3608 20.9036 33.7192 22.9825 33.7192C25.0613 33.7192 26.7167 35.3358 26.7167 37.3533Z" fill="#0DDEFF"/>
<path d="M53.7038 26.1003C53.2547 25.3234 52.69 24.584 52.0099 23.9198C51.8816 23.7945 51.7532 23.6818 51.6249 23.569C51.4966 23.4562 51.3683 23.3559 51.2399 23.2432C48.2115 20.8246 44.105 20.3609 40.6659 21.8522C39.5495 22.3284 38.4972 23.0301 37.5733 23.9198C33.5823 27.8171 33.5823 34.1203 37.5733 38.0176C37.7144 38.1554 37.8684 38.2933 38.0224 38.4311C42.0262 41.9148 48.173 41.777 52.0099 38.0176C52.7414 37.3033 53.3445 36.5138 53.8065 35.6617C55.4362 32.6667 55.3977 29.0577 53.7038 26.1003ZM41.1407 29.4462L43.4377 31.6893L48.4681 26.7895L50.239 28.5188L45.2215 33.4186L43.4249 35.1604L41.6412 33.4186L39.3442 31.1755L41.1407 29.4462Z" fill="#0DDEFF"/>
<defs>
<filter id="filter0_d" x="0" y="0" width="70" height="70" filterUnits="userSpaceOnUse" color-interpolation-filters="sRGB">
<feFlood flood-opacity="0" result="BackgroundImageFix"/>
<feColorMatrix in="SourceAlpha" type="matrix" values="0 0 0 0 0 0 0 0 0 0 0 0 0 0 0 0 0 0 127 0"/>
<feOffset dy="4"/>
<feGaussianBlur stdDeviation="2"/>
<feColorMatrix type="matrix" values="0 0 0 0 0 0 0 0 0 0 0 0 0 0 0 0 0 0 0.25 0"/>
<feBlend mode="normal" in2="BackgroundImageFix" result="effect1_dropShadow"/>
<feBlend mode="normal" in="SourceGraphic" in2="effect1_dropShadow" result="shape"/>
</filter>
</defs>
</svg>
