<svg width="70" height="70" viewBox="0 0 70 70" fill="none" xmlns="http://www.w3.org/2000/svg">
<path d="M69 32.5C69 50.4493 54.4493 65 36.5 65C18.5507 65 4 50.4493 4 32.5C4 14.5507 18.5507 0 36.5 0C54.4493 0 69 14.5507 69 32.5Z" fill="#0DDEFF"/>
<g filter="url(#filter0_d)">
<path d="M66 31C66 48.1208 52.1208 62 35 62C17.8792 62 4 48.1208 4 31C4 13.8792 17.8792 0 35 0C52.1208 0 66 13.8792 66 31Z" fill="white"/>
</g>
<path d="M51.8901 28.5572C51.8348 28.0652 51.261 27.6952 50.7648 27.6952C49.1613 27.6952 47.7381 26.754 47.1413 25.2973C46.5321 23.8056 46.9252 22.0663 48.1199 20.9703C48.4962 20.6262 48.542 20.0501 48.2266 19.6502C47.4056 18.608 46.4729 17.6663 45.4542 16.8503C45.0556 16.5307 44.47 16.5752 44.1241 16.958C43.0811 18.1132 41.2074 18.5424 39.7594 17.9383C38.2532 17.3046 37.3024 15.7778 37.3958 14.139C37.4266 13.6239 37.05 13.1763 36.5367 13.1165C35.2294 12.9652 33.9105 12.9608 32.5994 13.1062C32.0926 13.1622 31.7163 13.5992 31.7331 14.1078C31.7899 15.7306 30.8284 17.2304 29.3367 17.8415C27.9062 18.4259 26.0455 17.9998 25.0045 16.8547C24.6605 16.4775 24.0851 16.4312 23.6839 16.7441C22.6352 17.567 21.6815 18.5093 20.8529 19.5431C20.53 19.9449 20.5777 20.5274 20.9572 20.8726C22.1755 21.9759 22.5683 23.7302 21.9358 25.2393C21.3318 26.678 19.838 27.6048 18.128 27.6048C17.5731 27.5869 17.1782 27.9597 17.1169 28.4644C16.9631 29.7787 16.9615 31.1185 17.1095 32.4436C17.1647 32.9376 17.7555 33.3045 18.2571 33.3045C19.7814 33.2658 21.2439 34.2087 21.8583 35.7022C22.4696 37.1939 22.0761 38.9325 20.8794 40.03C20.5051 40.3741 20.4572 40.9488 20.7733 41.3482C21.586 42.384 22.5196 43.3262 23.5413 44.1492C23.9424 44.4722 24.5258 44.4269 24.8734 44.0437C25.9206 42.8858 27.794 42.4573 29.2361 43.0626C30.7467 43.6946 31.697 45.2213 31.6042 46.8605C31.5738 47.3756 31.9513 47.8246 32.4627 47.883C33.1317 47.9613 33.8043 48 34.4789 48C35.1192 48 35.7596 47.965 36.4 47.8937C36.9074 47.8377 37.2831 47.4003 37.266 46.8916C37.2074 45.2696 38.171 43.7696 39.6609 43.1597C41.1009 42.5715 42.9533 43.002 43.9949 44.1454C44.3408 44.5218 44.9126 44.5676 45.3155 44.2559C46.3624 43.4351 47.3143 42.4933 48.1465 41.4567C48.4697 41.0556 48.4238 40.4724 48.0422 40.1266C46.8242 39.024 46.4293 37.269 47.0618 35.7614C47.6564 34.3421 49.0947 33.3891 50.6416 33.3891L50.8581 33.3949C51.3603 33.4356 51.8218 33.0489 51.8825 32.5365C52.037 31.221 52.0387 29.8827 51.8901 28.5572ZM34.4999 40.589C28.9277 40.589 24.4109 36.0722 24.4109 30.5002C24.4109 24.9283 28.9279 20.4114 34.4999 20.4114C40.072 20.4114 44.589 24.9283 44.589 30.5002C44.589 32.3915 44.0675 34.1605 43.1619 35.6732L38.7442 31.2554C39.064 30.5013 39.233 29.6838 39.2328 28.8401C39.2328 27.1879 38.5893 25.6348 37.421 24.4667C36.2529 23.2987 34.6997 22.6554 33.0479 22.6554C32.4966 22.6554 31.9479 22.7287 31.4171 22.8732C31.1846 22.9366 30.9945 23.1283 30.9326 23.3612C30.8693 23.5994 30.9406 23.8436 31.1268 24.0299C31.1268 24.0299 33.3078 26.2277 34.0375 26.9573C34.114 27.0337 34.1138 27.2161 34.1031 27.2818L34.0962 27.3298C34.0227 28.132 33.8809 29.095 33.7638 29.465C33.7481 29.4806 33.7333 29.4938 33.7172 29.5098C33.7004 29.5266 33.685 29.5428 33.6688 29.5595C33.2939 29.6798 32.316 29.8233 31.5011 29.8963L31.5012 29.8919L31.4646 29.9011C31.4581 29.9019 31.446 29.9028 31.43 29.9028C31.3419 29.9028 31.2123 29.8781 31.0945 29.7605C30.335 29.001 28.2395 26.9205 28.2395 26.9205C28.0515 26.7331 27.8587 26.6937 27.7302 26.6937C27.4306 26.6937 27.1624 26.9102 27.0779 27.2206C26.5011 29.3553 27.1126 31.6515 28.6742 33.2132C29.8426 34.3815 31.3959 35.0247 33.048 35.0247C33.8918 35.0247 34.7093 34.856 35.4632 34.5361L39.9289 39.0018C38.3611 40.005 36.4993 40.589 34.4999 40.589Z" fill="#0DDEFF"/>
<defs>
<filter id="filter0_d" x="0" y="0" width="70" height="70" filterUnits="userSpaceOnUse" color-interpolation-filters="sRGB">
<feFlood flood-opacity="0" result="BackgroundImageFix"/>
<feColorMatrix in="SourceAlpha" type="matrix" values="0 0 0 0 0 0 0 0 0 0 0 0 0 0 0 0 0 0 127 0"/>
<feOffset dy="4"/>
<feGaussianBlur stdDeviation="2"/>
<feColorMatrix type="matrix" values="0 0 0 0 0 0 0 0 0 0 0 0 0 0 0 0 0 0 0.25 0"/>
<feBlend mode="normal" in2="BackgroundImageFix" result="effect1_dropShadow"/>
<feBlend mode="normal" in="SourceGraphic" in2="effect1_dropShadow" result="shape"/>
</filter>
</defs>
</svg>
