<svg width="70" height="70" viewBox="0 0 70 70" fill="none" xmlns="http://www.w3.org/2000/svg">
<circle cx="36.5" cy="32.5" r="32.5" fill="#0DDEFF"/>
<g filter="url(#filter0_d)">
<circle cx="35" cy="31" r="31" fill="white"/>
</g>
<path d="M45.8471 14H23.6764C22.7505 14 22 14.7599 22 15.6967V45.3032C22 46.2401 22.7505 47 23.6764 47H45.8471C46.7734 47 47.5236 46.2401 47.5236 45.3032V15.6967C47.5235 14.7599 46.7733 14 45.8471 14ZM29.9676 39.9987C29.9676 40.422 29.628 40.7656 29.2097 40.7656H26.6026C26.1838 40.7656 25.8447 40.4219 25.8447 39.9987V37.3606C25.8447 36.9368 26.1838 36.5936 26.6026 36.5936H29.2097C29.628 36.5936 29.9676 36.9368 29.9676 37.3606V39.9987ZM29.9676 33.3425C29.9676 33.7661 29.628 34.1093 29.2097 34.1093H26.6026C26.1838 34.1093 25.8447 33.7661 25.8447 33.3425V30.7043C25.8447 30.2809 26.1838 29.9374 26.6026 29.9374H29.2097C29.628 29.9374 29.9676 30.2809 29.9676 30.7043V33.3425ZM36.5917 39.9987C36.5917 40.422 36.2524 40.7656 35.8337 40.7656H33.2266C32.8079 40.7656 32.4687 40.4219 32.4687 39.9987V37.3606C32.4687 36.9368 32.8079 36.5936 33.2266 36.5936H35.8337C36.2523 36.5936 36.5915 36.9368 36.5915 37.3606V39.9987H36.5917ZM36.5917 33.3425C36.5917 33.7661 36.2524 34.1093 35.8337 34.1093H33.2266C32.8079 34.1093 32.4687 33.7661 32.4687 33.3425V30.7043C32.4687 30.2809 32.8079 29.9374 33.2266 29.9374H35.8337C36.2523 29.9374 36.5915 30.2809 36.5915 30.7043V33.3425H36.5917ZM43.216 39.9987C43.216 40.422 42.8764 40.7656 42.4578 40.7656H39.8506C39.4319 40.7656 39.0928 40.4219 39.0928 39.9987V37.3606C39.0928 36.9368 39.4319 36.5936 39.8506 36.5936H42.4578C42.8765 36.5936 43.216 36.9368 43.216 37.3606V39.9987ZM43.216 33.3425C43.216 33.7661 42.8764 34.1093 42.4578 34.1093H39.8506C39.4319 34.1093 39.0928 33.7661 39.0928 33.3425V30.7043C39.0928 30.2809 39.4319 29.9374 39.8506 29.9374H42.4578C42.8765 29.9374 43.216 30.2809 43.216 30.7043V33.3425ZM44.1418 24.517C44.1418 25.2065 43.5898 25.7655 42.9081 25.7655H26.6612C25.9805 25.7655 25.4278 25.2066 25.4278 24.517V19.0452C25.4278 18.356 25.9805 17.7972 26.6612 17.7972H42.9081C43.5898 17.7972 44.1418 18.356 44.1418 19.0452V24.517Z" fill="#0DDEFF"/>
<path d="M41.1082 18.5996C40.2743 18.5996 39.6025 19.2832 39.6025 20.127V23.5633C39.6025 24.4071 40.2742 25.0907 41.1082 25.0907C41.9414 25.0907 42.6134 24.4071 42.6134 23.5633V20.127C42.6134 19.2832 41.9414 18.5996 41.1082 18.5996Z" fill="#0DDEFF"/>
<defs>
<filter id="filter0_d" x="0" y="0" width="70" height="70" filterUnits="userSpaceOnUse" color-interpolation-filters="sRGB">
<feFlood flood-opacity="0" result="BackgroundImageFix"/>
<feColorMatrix in="SourceAlpha" type="matrix" values="0 0 0 0 0 0 0 0 0 0 0 0 0 0 0 0 0 0 127 0"/>
<feOffset dy="4"/>
<feGaussianBlur stdDeviation="2"/>
<feColorMatrix type="matrix" values="0 0 0 0 0 0 0 0 0 0 0 0 0 0 0 0 0 0 0.25 0"/>
<feBlend mode="normal" in2="BackgroundImageFix" result="effect1_dropShadow"/>
<feBlend mode="normal" in="SourceGraphic" in2="effect1_dropShadow" result="shape"/>
</filter>
</defs>
</svg>
