<svg width="40" height="32" viewBox="0 0 40 32" fill="none" xmlns="http://www.w3.org/2000/svg">
<path d="M37.4985 0.76957H24.01C23.6846 0.768326 23.3621 0.832506 23.0612 0.958398C22.7604 1.08429 22.4872 1.2694 22.2573 1.50301C22.0275 1.73662 21.8457 2.01411 21.7223 2.31942C21.5989 2.62472 21.5365 2.9518 21.5386 3.28172V31.5388H40.0001V3.28172C39.9988 2.95018 39.9331 2.62216 39.8067 2.3164C39.6802 2.01065 39.4955 1.73317 39.2632 1.49984C39.0308 1.26652 38.7554 1.08192 38.4526 0.956609C38.1498 0.831301 37.8256 0.767742 37.4985 0.76957ZM33.831 21.3312L30.0694 27.5713C30.022 27.6496 29.9555 27.7142 29.8764 27.759C29.7972 27.8037 29.708 27.827 29.6174 27.8267C29.5449 27.8249 29.4735 27.8084 29.4074 27.7781C29.3413 27.7479 29.2819 27.7045 29.2326 27.6506C29.1833 27.5967 29.1451 27.5333 29.1204 27.4642C29.0957 27.3951 29.0849 27.3216 29.0887 27.2482L29.2788 23.9389H28.1294C28.0564 23.941 27.9838 23.9274 27.9164 23.8991C27.8489 23.8708 27.7881 23.8284 27.7379 23.7747C27.6884 23.7216 27.6506 23.6584 27.6271 23.5894C27.6036 23.5203 27.5949 23.447 27.6017 23.3742L28.0611 18.3772C28.0729 18.2428 28.1333 18.1177 28.2308 18.0259C28.3282 17.934 28.4558 17.882 28.5888 17.8799H32.359C32.4464 17.8807 32.5323 17.9032 32.6092 17.9455C32.686 17.9878 32.7514 18.0485 32.7997 18.1224C32.848 18.1962 32.8778 18.281 32.8863 18.3692C32.8948 18.4574 32.8818 18.5463 32.8486 18.6283L32.0859 20.4876H33.3792C33.4743 20.4903 33.567 20.5183 33.648 20.5688C33.729 20.6192 33.7955 20.6904 33.8408 20.7752C33.8869 20.8608 33.9103 20.957 33.9086 21.0545C33.9069 21.152 33.8801 21.2474 33.831 21.3312ZM38.2599 12.7699C38.2599 13.0665 38.0134 13.2712 37.7208 13.2712H23.977C23.6845 13.2712 23.4302 13.0665 23.4302 12.7699V5.70397C23.4337 5.15046 23.6516 4.6205 24.0369 4.22832C24.4223 3.83614 24.9442 3.61314 25.4902 3.60737H36.2076C36.7528 3.61346 37.2737 3.83681 37.6578 4.22914C38.0418 4.62148 38.2581 5.15127 38.2599 5.70397V12.7699Z" fill="#0DDEFF"/>
<path d="M7.01923 3.58125C7.01049 3.39599 6.93167 3.22097 6.79874 3.09163C6.66581 2.96228 6.4887 2.88829 6.30327 2.88462H5.76923V0.673077C5.76923 0.494566 5.69832 0.323366 5.57209 0.19714C5.44586 0.0709135 5.27466 0 5.09615 0C4.91764 0 4.74644 0.0709135 4.62022 0.19714C4.49399 0.323366 4.42308 0.494566 4.42308 0.673077V2.88462H2.59615V0.673077C2.59615 0.494566 2.52524 0.323366 2.39901 0.19714C2.27279 0.0709135 2.10159 0 1.92308 0C1.74457 0 1.57337 0.0709135 1.44714 0.19714C1.32091 0.323366 1.25 0.494566 1.25 0.673077V2.88462H0.679135C0.497593 2.88969 0.325161 2.96526 0.198385 3.0953C0.0716094 3.22534 0.000454015 3.39964 0 3.58125V4.80769H7.01923V3.58125Z" fill="#0DDEFF"/>
<path d="M12.3077 18.6057V25.0961C12.3077 26.1799 11.8772 27.2194 11.1108 27.9857C10.3444 28.7521 9.30498 29.1827 8.22116 29.1827C7.13734 29.1827 6.09792 28.7521 5.33154 27.9857C4.56517 27.2194 4.13462 26.1799 4.13462 25.0961V10.5288C4.13462 10.5135 4.16962 10.4985 4.16866 10.4834C5.75001 10.3042 7.01924 8.9591 7.01924 7.33083V6.15381H6.13066e-06V7.33083C-0.00152371 8.10874 0.28331 8.86001 0.800195 9.44137C1.31708 10.0227 2.02985 10.3935 2.8026 10.483C2.80154 10.4981 2.78847 10.5131 2.78847 10.5284V25.0961C2.78847 26.537 3.36084 27.9188 4.37967 28.9376C5.39849 29.9564 6.78032 30.5288 8.22116 30.5288C9.662 30.5288 11.0438 29.9564 12.0627 28.9376C13.0815 27.9188 13.6539 26.537 13.6539 25.0961V18.6057C13.6539 16.3259 15.5385 14.423 17.8182 14.423H19.9039V13.0769H17.8182C14.7961 13.0769 12.3077 15.5832 12.3077 18.6057Z" fill="#0DDEFF"/>
</svg>
