<svg width="21" height="20" viewBox="0 0 21 20" fill="none" xmlns="http://www.w3.org/2000/svg">
<path d="M19.1237 5.10127C18.6746 4.32433 18.1099 3.58498 17.4298 2.92082C17.3015 2.79551 17.1732 2.68273 17.0448 2.56995C16.9165 2.45716 16.7882 2.35691 16.6599 2.24413C13.6314 -0.174414 9.52497 -0.638074 6.08584 0.853154C4.96941 1.32934 3.91714 2.0311 2.99319 2.92082C-0.997731 6.81807 -0.997731 13.1213 2.99319 17.0186C3.13435 17.1564 3.28834 17.2943 3.44233 17.4321C7.44609 20.9158 13.5929 20.778 17.4298 17.0186C18.1613 16.3043 18.7644 15.5148 19.2264 14.6627C20.8561 11.6677 20.8176 8.05867 19.1237 5.10127ZM6.56064 8.44714L8.85767 10.6902L13.888 5.7905L15.6589 7.51982L10.6414 12.4196L8.84484 14.1614L7.06111 12.4196L4.76409 10.1765L6.56064 8.44714Z" fill="white"/>
</svg>
