<svg width="69" height="69" viewBox="0 0 69 69" fill="none" xmlns="http://www.w3.org/2000/svg">
<rect width="68.764" height="68.8" rx="6" fill="#F3F3F3"/>
<path fill-rule="evenodd" clip-rule="evenodd" d="M21.9013 47.8825L39.9732 29.8012C40.6362 29.1377 41.7113 29.1377 42.3743 29.8012L47.9653 35.395V22.5085C47.9653 21.5703 47.2051 20.8098 46.2674 20.8098H22.4971C21.5594 20.8098 20.7992 21.5703 20.7992 22.5085V46.2912C20.7992 47.0197 21.2575 47.6411 21.9013 47.8825ZM26.5961 47.9899H46.2674C47.2051 47.9899 47.9653 47.2293 47.9653 46.2911V40.1997L41.1737 33.4046L26.5961 47.9899ZM22.497 17.4121H46.2672C49.0804 17.4121 51.3609 19.6938 51.3609 22.5084V46.2911C51.3609 49.1057 49.0804 51.3874 46.2672 51.3874H22.497C19.6838 51.3874 17.4033 49.1057 17.4033 46.2911V22.5084C17.4033 19.6938 19.6838 17.4121 22.497 17.4121ZM28.4397 32.7008C26.0954 32.7008 24.195 30.7994 24.195 28.4539C24.195 26.1084 26.0954 24.207 28.4397 24.207C30.7839 24.207 32.6843 26.1084 32.6843 28.4539C32.6843 30.7994 30.7839 32.7008 28.4397 32.7008ZM28.4402 29.3035C28.9093 29.3035 29.2896 28.9232 29.2896 28.4541C29.2896 27.985 28.9093 27.6047 28.4402 27.6047C27.9711 27.6047 27.5908 27.985 27.5908 28.4541C27.5908 28.9232 27.9711 29.3035 28.4402 29.3035Z" fill="#B9B9B9"/>
</svg>
