<svg width="19" height="19" viewBox="0 0 19 19" fill="none" xmlns="http://www.w3.org/2000/svg">
<path d="M18.4934 6.14231L12.8578 0.506635C12.1822 -0.168878 11.0834 -0.168878 10.408 0.506635L0.506576 10.4079C-0.168859 11.0834 -0.168859 12.1823 0.506576 12.8577L6.14225 18.4935C6.81777 19.1689 7.91668 19.169 8.59207 18.4935L18.4934 8.59217C19.1689 7.91666 19.1688 6.81775 18.4934 6.14231ZM7.18103 17.8096C7.10028 17.7819 7.02332 17.7413 6.95881 17.6769L1.32313 12.0412C1.3216 12.0396 1.32125 12.0376 1.31961 12.036L7.18099 12.036V17.8096H7.18103ZM1.66672 10.8811L10.8812 1.66654L10.8813 10.6292C10.8812 10.764 10.764 10.8813 10.6292 10.8813L1.66672 10.8811ZM8.33573 17.1166V12.036H10.6293C11.0052 12.036 11.3586 11.8896 11.6241 11.6241C11.8897 11.3585 12.036 11.0053 12.036 10.6293V8.33575L17.1164 8.33595L8.33573 17.1166ZM12.036 7.18101V1.31963C12.0375 1.32123 12.0396 1.32159 12.0412 1.32319L17.6769 6.95887C17.7413 7.0233 17.7819 7.10022 17.8094 7.18121L12.036 7.18101Z" fill="white"/>
<path d="M0.562641 2.448H6.47637C6.78705 2.448 7.03901 2.19612 7.03901 1.88539C7.03901 1.57467 6.78709 1.32275 6.47637 1.32275H0.562641C0.25188 1.32275 0 1.57463 0 1.88539C0 2.19612 0.25188 2.448 0.562641 2.448Z" fill="white"/>
<path d="M0.562641 4.65845H4.27096C4.58168 4.65845 4.83356 4.40657 4.83356 4.0958C4.83356 3.78512 4.58168 3.5332 4.27096 3.5332H0.562641C0.25188 3.5332 0 3.78508 0 4.0958C0 4.40657 0.25188 4.65845 0.562641 4.65845Z" fill="white"/>
<path d="M0.562641 6.80155H2.9569C3.26759 6.80155 3.51955 6.54967 3.51955 6.23891C3.51955 5.92815 3.26763 5.67627 2.9569 5.67627H0.562641C0.25188 5.67627 0 5.92819 0 6.23891C0 6.54963 0.25188 6.80155 0.562641 6.80155Z" fill="white"/>
<path d="M2.9569 17.147H0.562641C0.25188 17.147 0 17.3989 0 17.7096C0 18.0203 0.25188 18.2723 0.562641 18.2723H2.9569C3.26759 18.2723 3.51955 18.0204 3.51955 17.7096C3.51955 17.3989 3.26763 17.147 2.9569 17.147Z" fill="white"/>
</svg>
