<svg width="16" height="14" viewBox="0 0 16 14" fill="none" xmlns="http://www.w3.org/2000/svg">
<path d="M15.8403 1.73044C15.9106 1.23826 15.8755 0.921849 15.6645 0.710912C15.4536 0.499974 15.1723 0.464818 14.8208 0.570287L0.863749 5.94919C0.371562 6.16013 0.125468 6.37107 0.125468 6.58201C0.0903119 6.8281 0.266093 7.00388 0.687968 7.10935L4.27391 8.23435L12.5708 2.99607C12.6762 2.92576 12.7817 2.8906 12.8872 2.8906C12.9927 2.8906 13.063 2.8906 13.0981 2.96091C13.1333 3.03122 13.0981 3.06638 13.0278 3.13669L6.31297 9.21872L6.03172 12.9101C6.2075 12.9101 6.34812 12.875 6.48875 12.8047C6.55906 12.7695 6.62937 12.6992 6.77 12.5586L8.52781 10.8711L12.1489 13.5429C12.4653 13.7539 12.7466 13.789 12.9575 13.6836C13.1684 13.5781 13.3442 13.332 13.4497 12.9101L15.8403 1.73044Z" fill="#0088CC"/>
</svg>
