<svg width="18" height="19" viewBox="0 0 18 19" fill="none" xmlns="http://www.w3.org/2000/svg">
<path d="M15.6088 2.00758C15.1518 1.62086 13.3237 0.284926 9.31587 0.284926C9.31587 0.284926 4.56978 0.0036763 2.24947 2.11305C0.948686 3.41383 0.491654 5.27711 0.456498 7.63258C0.421342 9.9529 0.351029 14.3474 4.56978 15.5427V17.3357C4.56978 17.3357 4.53462 18.074 5.02681 18.2498C5.62447 18.4256 5.94087 17.8631 6.50337 17.2654C6.81978 16.9138 7.24165 16.4568 7.55806 16.0701C10.4409 16.3162 12.6557 15.7537 12.937 15.6834C13.4995 15.4724 16.8042 15.0506 17.3315 10.6912C17.894 6.15602 17.0854 3.30836 15.6088 2.00758ZM16.0659 10.3396C15.644 13.9959 12.937 14.242 12.4448 14.4177C12.2338 14.4529 10.3002 14.9451 7.83931 14.8045C7.83931 14.8045 6.01119 16.9841 5.44869 17.5818C5.2729 17.7576 5.06197 17.7576 5.06197 17.3709C5.06197 17.1248 5.06197 14.3474 5.06197 14.3474C1.51119 13.3631 1.72212 9.63649 1.75728 7.7029C1.79244 5.73415 2.144 4.15211 3.23384 3.06227C5.20259 1.2693 9.24556 1.55055 9.24556 1.55055C12.6557 1.55055 14.2729 2.60524 14.6596 2.92165C15.9252 4.01149 16.5581 6.5779 16.0659 10.3396ZM11.1792 7.52711C11.144 6.50758 10.6167 5.94508 9.63228 5.87477C9.31587 5.87477 9.28072 6.3318 9.59712 6.3318C10.3354 6.40211 10.687 6.75368 10.7573 7.52711C10.7573 7.84352 11.2143 7.80836 11.1792 7.52711ZM11.9174 7.91383C11.9174 8.19508 12.3745 8.23024 12.3745 7.91383C12.4096 6.22633 11.3198 4.82008 9.28072 4.67946C8.96431 4.6443 8.92915 5.10133 9.24556 5.13649C11.0034 5.24196 11.9526 6.43727 11.9174 7.91383ZM13.5698 8.37086C13.5346 5.31227 11.4604 3.5193 8.85884 3.48415C8.57759 3.48415 8.57759 3.94118 8.85884 3.94118C11.1792 3.97633 13.0776 5.52321 13.1127 8.37086C13.1127 8.68727 13.5698 8.68727 13.5698 8.37086ZM13.1479 11.8162C13.3237 11.4998 13.2885 11.2185 13.0424 11.0076C12.5854 10.5857 11.9526 10.1287 11.4252 9.84743C11.0385 9.63649 10.6518 9.77711 10.476 9.98805L10.1596 10.4099C9.98384 10.6209 9.66744 10.5857 9.66744 10.5857C7.31197 9.98805 6.67915 7.63258 6.67915 7.63258C6.67915 7.63258 6.67915 7.31618 6.89009 7.1404L7.31197 6.78883C7.5229 6.61305 7.62837 6.22633 7.41744 5.83961C7.31197 5.62868 7.06587 5.24196 6.89009 5.03102C6.71431 4.74977 6.25728 4.25758 6.25728 4.25758C6.0815 3.97633 5.76509 3.94118 5.44869 4.11696H5.41353C4.74556 4.46852 4.00728 5.2068 4.25337 5.90993C4.25337 5.90993 4.42915 6.54274 5.16744 7.87868C5.519 8.54665 5.90572 9.07399 6.25728 9.53102C6.644 10.0232 7.17134 10.5506 7.73384 11.0076C8.85884 11.8865 10.5815 12.8006 11.3198 13.0115H11.3549C12.0581 13.2576 12.7963 12.5193 13.1479 11.8513V11.8162Z" fill="#8F5DB7"/>
</svg>
