<svg width="16" height="17" viewBox="0 0 16 17" fill="none" xmlns="http://www.w3.org/2000/svg">
<path d="M10.1772 9.35491C9.91602 9.35491 9.41378 10.3292 9.11244 10.3292C9.03209 10.3292 8.96177 10.2991 8.89146 10.2589C8.32896 9.97768 7.83677 9.68638 7.37472 9.24442C6.99302 8.88281 6.57115 8.3404 6.35017 7.8683C6.32003 7.81808 6.29994 7.76786 6.29994 7.71763C6.29994 7.48661 6.99302 7.05469 6.99302 6.67299C6.99302 6.57255 6.48075 5.20647 6.41044 5.03571C6.30999 4.77455 6.25977 4.6942 5.98856 4.6942C5.85798 4.6942 5.73744 4.66406 5.61691 4.66406C5.40597 4.66406 5.24526 4.74442 5.09459 4.88505C4.61244 5.33705 4.37137 5.80915 4.35128 6.4721V6.55246C4.34124 7.24554 4.68276 7.93862 5.06445 8.50112C5.92829 9.77679 6.82227 10.8917 8.25865 11.5446C8.69057 11.7455 9.68499 12.1674 10.1671 12.1674C10.7397 12.1674 11.6738 11.8058 11.9049 11.2433C11.9953 11.0123 12.0756 10.731 12.0756 10.4799C12.0756 10.4397 12.0756 10.3795 12.0555 10.3292C11.9852 10.2087 10.3479 9.35491 10.1772 9.35491ZM8.13811 14.6786C6.91267 14.6786 5.69727 14.3069 4.67271 13.6339L2.24191 14.4074L3.03544 12.067C2.25195 10.9922 1.83008 9.69643 1.83008 8.37054C1.83008 4.89509 4.66267 2.0625 8.13811 2.0625C11.6136 2.0625 14.4461 4.89509 14.4461 8.37054C14.4461 11.846 11.6136 14.6786 8.13811 14.6786ZM8.13811 0.796875C3.95954 0.796875 0.564453 4.19196 0.564453 8.37054C0.564453 9.74665 0.936105 11.1027 1.64927 12.2779L0.283203 16.346L4.47182 15C5.59682 15.6228 6.86245 15.9442 8.13811 15.9442C12.3167 15.9442 15.7118 12.5491 15.7118 8.37054C15.7118 4.19196 12.3167 0.796875 8.13811 0.796875Z" fill="#128C7E"/>
</svg>
