<svg width="16" height="16" viewBox="0 0 16 16" fill="none" xmlns="http://www.w3.org/2000/svg">
<path d="M7.875 3.83203C8.57812 3.83203 9.24609 4.04297 9.87891 4.39453C10.5117 4.74609 11.0039 5.23828 11.3555 5.87109C11.707 6.50391 11.918 7.17188 11.918 7.875C11.918 8.61328 11.707 9.28125 11.3555 9.91406C11.0039 10.5469 10.5117 11.0391 9.87891 11.3906C9.24609 11.7422 8.57812 11.918 7.875 11.918C7.13672 11.918 6.46875 11.7422 5.83594 11.3906C5.20312 11.0391 4.71094 10.5469 4.35938 9.91406C4.00781 9.28125 3.83203 8.61328 3.83203 7.875C3.83203 7.17188 4.00781 6.50391 4.35938 5.87109C4.71094 5.23828 5.20312 4.74609 5.83594 4.39453C6.46875 4.04297 7.13672 3.83203 7.875 3.83203ZM7.875 10.5117C8.57812 10.5117 9.21094 10.2656 9.73828 9.73828C10.2305 9.24609 10.5117 8.61328 10.5117 7.875C10.5117 7.17188 10.2305 6.53906 9.73828 6.01172C9.21094 5.51953 8.57812 5.23828 7.875 5.23828C7.13672 5.23828 6.50391 5.51953 6.01172 6.01172C5.48438 6.53906 5.23828 7.17188 5.23828 7.875C5.23828 8.61328 5.48438 9.24609 6.01172 9.73828C6.50391 10.2656 7.13672 10.5117 7.875 10.5117ZM13.043 3.65625C13.043 3.41016 12.9375 3.19922 12.7617 2.98828C12.5508 2.8125 12.3398 2.70703 12.0938 2.70703C11.8125 2.70703 11.6016 2.8125 11.4258 2.98828C11.2148 3.19922 11.1445 3.41016 11.1445 3.65625C11.1445 3.9375 11.2148 4.14844 11.4258 4.32422C11.6016 4.53516 11.8125 4.60547 12.0938 4.60547C12.3398 4.60547 12.5508 4.53516 12.7266 4.32422C12.9023 4.14844 13.0078 3.9375 13.043 3.65625ZM15.7148 4.60547C15.7148 5.27344 15.75 6.36328 15.75 7.875C15.75 9.42188 15.7148 10.5117 15.6797 11.1797C15.6445 11.8477 15.5391 12.4102 15.3984 12.9023C15.1875 13.5 14.8359 14.0273 14.4141 14.4492C13.9922 14.8711 13.4648 15.1875 12.9023 15.3984C12.4102 15.5742 11.8125 15.6797 11.1445 15.7148C10.4766 15.75 9.38672 15.75 7.875 15.75C6.32812 15.75 5.23828 15.75 4.57031 15.7148C3.90234 15.6797 3.33984 15.5742 2.84766 15.3633C2.25 15.1875 1.72266 14.8711 1.30078 14.4492C0.878906 14.0273 0.5625 13.5 0.351562 12.9023C0.175781 12.4102 0.0703125 11.8477 0.0351562 11.1797C0 10.5117 0 9.42188 0 7.875C0 6.36328 0 5.27344 0.0351562 4.60547C0.0703125 3.9375 0.175781 3.33984 0.351562 2.84766C0.5625 2.28516 0.878906 1.75781 1.30078 1.33594C1.72266 0.914062 2.25 0.5625 2.84766 0.351562C3.33984 0.210938 3.90234 0.105469 4.57031 0.0703125C5.23828 0.0351562 6.32812 0 7.875 0C9.38672 0 10.4766 0.0351562 11.1445 0.0703125C11.8125 0.105469 12.4102 0.210938 12.9023 0.351562C13.4648 0.5625 13.9922 0.914062 14.4141 1.33594C14.8359 1.75781 15.1875 2.28516 15.3984 2.84766C15.5391 3.33984 15.6445 3.9375 15.7148 4.60547ZM14.0273 12.5156C14.168 12.1289 14.2383 11.4961 14.3086 10.6172C14.3086 10.125 14.3438 9.38672 14.3438 8.4375V7.3125C14.3438 6.36328 14.3086 5.625 14.3086 5.13281C14.2383 4.25391 14.168 3.62109 14.0273 3.23438C13.7461 2.53125 13.2188 2.00391 12.5156 1.72266C12.1289 1.58203 11.4961 1.51172 10.6172 1.44141C10.0898 1.44141 9.35156 1.40625 8.4375 1.40625H7.3125C6.36328 1.40625 5.625 1.44141 5.13281 1.44141C4.25391 1.51172 3.62109 1.58203 3.23438 1.72266C2.49609 2.00391 2.00391 2.53125 1.72266 3.23438C1.58203 3.62109 1.47656 4.25391 1.44141 5.13281C1.40625 5.66016 1.40625 6.39844 1.40625 7.3125V8.4375C1.40625 9.38672 1.40625 10.125 1.44141 10.6172C1.47656 11.4961 1.58203 12.1289 1.72266 12.5156C2.00391 13.2539 2.53125 13.7461 3.23438 14.0273C3.62109 14.168 4.25391 14.2734 5.13281 14.3086C5.625 14.3438 6.36328 14.3438 7.3125 14.3438H8.4375C9.38672 14.3438 10.125 14.3438 10.6172 14.3086C11.4961 14.2734 12.1289 14.168 12.5156 14.0273C13.2188 13.7461 13.7461 13.2188 14.0273 12.5156Z" fill="white"/>
</svg>
