<svg width="19" height="12" viewBox="0 0 19 12" fill="none" xmlns="http://www.w3.org/2000/svg">
<path d="M18.4922 0.773438C18.4219 1.125 18.1406 1.72266 17.6484 2.53125C17.2969 3.12891 16.875 3.79688 16.3828 4.57031C15.9609 5.20312 15.7148 5.51953 15.7148 5.51953C15.5742 5.73047 15.5039 5.90625 15.5039 6.01172C15.5039 6.15234 15.5742 6.29297 15.7148 6.43359L16.0312 6.78516C17.7188 8.54297 18.668 9.73828 18.8789 10.3711C18.9492 10.6523 18.9141 10.8984 18.7734 11.0391C18.6328 11.1797 18.457 11.25 18.1758 11.25H16.1016C15.8203 11.25 15.6094 11.1797 15.3984 11.0039C15.2578 10.9336 14.9766 10.6875 14.625 10.2656C14.2734 9.84375 13.957 9.49219 13.6758 9.21094C12.7266 8.33203 12.0234 7.875 11.6016 7.875C11.3906 7.875 11.25 7.91016 11.1797 7.98047C11.1094 8.05078 11.0742 8.22656 11.0742 8.4375C11.0391 8.61328 11.0391 8.96484 11.0391 9.52734V10.4414C11.0391 10.7227 10.9688 10.9336 10.8281 11.0391C10.6172 11.1797 10.1953 11.25 9.5625 11.25C8.4375 11.25 7.34766 10.9336 6.22266 10.2656C5.09766 9.63281 4.11328 8.68359 3.26953 7.45312C2.46094 6.39844 1.79297 5.30859 1.26562 4.18359C0.84375 3.33984 0.492188 2.56641 0.246094 1.82812C0.0703125 1.26562 0 0.84375 0 0.597656C0 0.210938 0.210938 0 0.703125 0H2.77734C3.02344 0 3.19922 0.0703125 3.33984 0.175781C3.48047 0.316406 3.58594 0.527344 3.69141 0.808594C4.00781 1.75781 4.39453 2.67188 4.88672 3.55078C5.30859 4.39453 5.73047 5.0625 6.15234 5.55469C6.57422 6.08203 6.89062 6.32812 7.13672 6.32812C7.27734 6.32812 7.34766 6.29297 7.41797 6.1875C7.48828 6.08203 7.52344 5.87109 7.52344 5.55469V2.49609C7.48828 2.14453 7.41797 1.79297 7.27734 1.51172C7.20703 1.37109 7.06641 1.19531 6.92578 0.984375C6.75 0.773438 6.67969 0.632812 6.67969 0.492188C6.67969 0.351562 6.71484 0.246094 6.82031 0.140625C6.92578 0.0703125 7.06641 0 7.20703 0H10.4766C10.6875 0 10.8281 0.0703125 10.8984 0.175781C10.9688 0.316406 11.0391 0.492188 11.0391 0.773438V4.85156C11.0391 5.0625 11.0742 5.23828 11.1445 5.30859C11.2148 5.41406 11.2852 5.44922 11.3906 5.44922C11.4961 5.44922 11.6367 5.41406 11.7773 5.34375C11.918 5.27344 12.0938 5.09766 12.3398 4.81641C12.7617 4.32422 13.2188 3.72656 13.6758 2.98828C13.957 2.49609 14.2734 1.93359 14.5547 1.30078L14.9062 0.597656C15.0469 0.210938 15.3633 0 15.7852 0H17.8594C18.4219 0 18.6328 0.28125 18.4922 0.773438Z" fill="white"/>
</svg>
