<svg width="20" height="14" viewBox="0 0 20 14" fill="none" xmlns="http://www.w3.org/2000/svg">
<path d="M18.8086 2.10938C18.9492 2.74219 19.0898 3.72656 19.1602 4.99219L19.1953 6.75L19.1602 8.50781C19.0898 9.84375 18.9492 10.793 18.8086 11.4258C18.668 11.8477 18.457 12.1992 18.1758 12.4805C17.8594 12.7969 17.5078 13.0078 17.0859 13.1133C16.4531 13.2891 15.0469 13.3945 12.7969 13.4648L9.59766 13.5L6.39844 13.4648C4.14844 13.3945 2.70703 13.2891 2.10938 13.1133C1.6875 13.0078 1.30078 12.7969 1.01953 12.4805C0.703125 12.1992 0.492188 11.8477 0.386719 11.4258C0.210938 10.793 0.105469 9.84375 0.0351562 8.50781L0 6.75C0 6.25781 0 5.66016 0.0351562 4.99219C0.105469 3.72656 0.210938 2.74219 0.386719 2.10938C0.492188 1.6875 0.703125 1.33594 1.01953 1.01953C1.30078 0.738281 1.6875 0.527344 2.10938 0.386719C2.70703 0.246094 4.14844 0.105469 6.39844 0.0351562L9.59766 0L12.7969 0.0351562C15.0469 0.105469 16.4531 0.246094 17.0859 0.386719C17.5078 0.527344 17.8594 0.738281 18.1758 1.01953C18.457 1.33594 18.668 1.6875 18.8086 2.10938ZM7.62891 9.63281L12.6562 6.75L7.62891 3.90234V9.63281Z" fill="white"/>
</svg>
