<svg width="104" height="103" viewBox="0 0 104 103" fill="none" xmlns="http://www.w3.org/2000/svg">
<path d="M104 50C104 77.6142 81.6142 100 54 100C26.3858 100 4 77.6142 4 50C4 22.3858 26.3858 0 54 0C81.6142 0 104 22.3858 104 50Z" fill="#0DDEFF"/>
<g filter="url(#filter0_d)">
<path d="M99 47.5C99 73.7335 77.7335 95 51.5 95C25.2665 95 4 73.7335 4 47.5C4 21.2665 25.2665 0 51.5 0C77.7335 0 99 21.2665 99 47.5Z" fill="white"/>
</g>
<path d="M33.9936 56.5708L31.9062 52.249V72.1729L53.3391 72.2208V70.1317L33.9936 70.0924V56.5708Z" fill="#0DDEFF"/>
<path d="M62.7031 34.5249V35.6045H64.7939V31.4811L56.2837 23H31.9062V28.7795H33.9936V25.0891H54.092V34.5266L62.7031 34.5249ZM56.1793 25.8453L62.7031 32.3486V32.4375H56.1793V25.8453Z" fill="#0DDEFF"/>
<path d="M76.9147 37.3738L58.5359 37.3618C58.4811 37.3584 58.3853 37.3516 58.2604 37.3516C56.724 37.3516 54.9258 38.272 54.9258 40.8675V72.2067H79.9944V40.8658C79.9927 38.5526 77.9789 37.5689 76.9147 37.3738ZM78.316 70.4548H56.6008V40.8658C56.6008 40.4312 56.6008 39.1018 58.2604 39.1018C58.3408 39.1018 58.3938 39.107 58.4024 39.107L76.6872 39.1121C76.9986 39.184 78.3211 39.5689 78.3211 40.8641V70.4548H78.316Z" fill="#0DDEFF"/>
<path d="M66.4502 50.9839H58.5508V53.1722H66.4502V50.9839Z" fill="#0DDEFF"/>
<path d="M76.3559 50.9839H68.4531V53.1722H76.3559V50.9839Z" fill="#0DDEFF"/>
<path d="M61.8234 55.0718H58.6445V58.4355H61.8234V55.0718Z" fill="#0DDEFF"/>
<path d="M66.5261 55.0718H63.3438V58.4355H66.5261V55.0718Z" fill="#0DDEFF"/>
<path d="M71.3935 55.0718H68.2129V58.4355H71.3935V55.0718Z" fill="#0DDEFF"/>
<path d="M76.3762 55.0718H73.1973V58.4355H76.3762V55.0718Z" fill="#0DDEFF"/>
<path d="M61.8252 59.7983H58.6445V63.1638H61.8252V59.7983Z" fill="#0DDEFF"/>
<path d="M66.5278 59.7983H63.3438V63.1638H66.5278V59.7983Z" fill="#0DDEFF"/>
<path d="M71.3015 59.7983H68.1191V63.1638H71.3015V59.7983Z" fill="#0DDEFF"/>
<path d="M76.2883 59.7983H73.1094V63.1638H76.2883V59.7983Z" fill="#0DDEFF"/>
<path d="M61.716 64.5278H58.5371V67.8898H61.716V64.5278Z" fill="#0DDEFF"/>
<path d="M66.4226 64.5278H63.2402V67.8898H66.4226V64.5278Z" fill="#0DDEFF"/>
<path d="M71.3935 64.5278H68.2129V67.8898H71.3935V64.5278Z" fill="#0DDEFF"/>
<path d="M76.2866 64.5278H73.1094V67.8898H76.2866V64.5278Z" fill="#0DDEFF"/>
<path d="M76.3548 42.0376H58.5371V48.4998H76.3548V42.0376ZM68.2347 46.9617H67.3313V45.1173H66.6196V44.4551C66.7291 44.4586 66.8369 44.4483 66.9412 44.4261C67.0473 44.4021 67.1397 44.3645 67.2252 44.3114C67.3091 44.2584 67.3792 44.1848 67.4306 44.0959C67.4836 44.0052 67.5161 43.894 67.5212 43.7622H68.2347V46.9617ZM71.7986 46.9617H69.1757C69.1654 46.8043 69.1826 46.6623 69.2202 46.5288C69.2578 46.3971 69.316 46.2773 69.393 46.1695C69.4563 46.0788 69.5299 45.9916 69.6103 45.9129C69.6941 45.8342 69.7848 45.7606 69.8772 45.6922C69.9713 45.6203 70.0688 45.557 70.1715 45.492C70.2724 45.427 70.3717 45.3671 70.4658 45.3072C70.5017 45.2815 70.5462 45.2542 70.5941 45.2234C70.6437 45.1943 70.6865 45.1601 70.7292 45.1224C70.7686 45.0848 70.8045 45.0437 70.8336 44.9975C70.8644 44.9513 70.8747 44.8983 70.8747 44.8418C70.8747 44.6947 70.8387 44.592 70.7686 44.5356C70.6984 44.4791 70.6112 44.4517 70.5102 44.4517C70.334 44.4517 70.216 44.515 70.1475 44.6314C70.0791 44.7546 70.0466 44.912 70.0534 45.107H69.2339C69.2219 44.888 69.2441 44.6913 69.2989 44.5185C69.3536 44.3474 69.4375 44.2002 69.5504 44.0856C69.6599 43.9675 69.8002 43.8769 69.9645 43.8153C70.1287 43.7537 70.3118 43.7229 70.5137 43.7229C70.695 43.7229 70.8644 43.7434 71.015 43.7862C71.1672 43.8272 71.299 43.8923 71.4068 43.9727C71.5146 44.0565 71.6001 44.1609 71.6566 44.2875C71.7165 44.4158 71.7472 44.5646 71.7472 44.7323C71.7472 44.9376 71.7062 45.1104 71.6206 45.2507C71.5368 45.3927 71.4307 45.5142 71.299 45.6203C71.1707 45.7281 71.0269 45.8222 70.8678 45.9077C70.7121 45.9933 70.5616 46.0822 70.4196 46.1746V46.1798H71.7917V46.9617H71.7986ZM74.6319 46.3132C74.5925 46.4296 74.5258 46.5356 74.4283 46.64C74.3308 46.7392 74.2007 46.8265 74.0365 46.8949C73.8705 46.9634 73.6652 46.9993 73.4205 46.9993C73.1947 46.9993 73.0031 46.9736 72.8457 46.924C72.6866 46.871 72.5599 46.8077 72.459 46.729C72.3581 46.6486 72.2828 46.5596 72.2297 46.4638C72.175 46.3663 72.1356 46.2722 72.1117 46.1781C72.0877 46.084 72.0757 45.9984 72.0757 45.9214C72.0757 45.8461 72.0757 45.7863 72.0775 45.7469H72.9038C72.897 45.9197 72.9381 46.0463 73.0202 46.1302C73.0595 46.1815 73.1109 46.2191 73.1742 46.2397C73.2375 46.2619 73.3076 46.2722 73.3846 46.2722C73.5078 46.2722 73.6053 46.2448 73.6789 46.1917C73.7525 46.1387 73.7867 46.0446 73.7867 45.9129C73.7867 45.8427 73.7747 45.7845 73.7508 45.7418C73.7268 45.699 73.6977 45.6682 73.6601 45.6425C73.6224 45.6169 73.5779 45.5998 73.53 45.5929C73.4821 45.5878 73.4291 45.5809 73.3829 45.5809C73.3162 45.5809 73.2683 45.5827 73.2323 45.5895C73.1964 45.5929 73.1588 45.5981 73.128 45.6049V44.9804C73.1588 44.9821 73.1947 44.9873 73.234 44.9907C73.2717 44.9958 73.3213 44.9992 73.3812 44.9992C73.424 44.9992 73.4753 44.9958 73.5215 44.9907C73.5694 44.9838 73.6156 44.9701 73.6549 44.9496C73.6943 44.9274 73.7285 44.8983 73.7559 44.8606C73.7815 44.823 73.7918 44.7717 73.7918 44.7118C73.7918 44.6622 73.7798 44.6177 73.7559 44.5818C73.7319 44.5458 73.7011 44.515 73.6618 44.4945C73.6259 44.4723 73.5814 44.4586 73.5352 44.4466C73.4873 44.4363 73.4394 44.4312 73.3983 44.4312C73.3401 44.4312 73.2854 44.4398 73.2306 44.4569C73.1759 44.474 73.1331 44.4979 73.0972 44.5321C73.0595 44.5681 73.0304 44.6057 73.0065 44.657C72.9843 44.7049 72.9757 44.7648 72.9774 44.8316H72.1596C72.163 44.6416 72.1955 44.4774 72.2639 44.3388C72.3307 44.2002 72.4231 44.0873 72.5377 43.9949C72.654 43.9059 72.7875 43.8392 72.9363 43.7947C73.0886 43.7502 73.2494 43.7263 73.4205 43.7263C73.6413 43.7263 73.826 43.7554 73.9749 43.817C74.1254 43.8786 74.2435 43.9487 74.3359 44.0343C74.4266 44.1215 74.4916 44.2105 74.5309 44.3063C74.5703 44.4021 74.5908 44.4825 74.5908 44.5493C74.5908 44.7186 74.5686 44.8487 74.5275 44.9393C74.4865 45.03 74.4403 45.0968 74.3906 45.1395C74.341 45.1823 74.2931 45.208 74.2503 45.2165C74.211 45.2268 74.1888 45.2336 74.1888 45.237V45.2422C74.1888 45.2473 74.2007 45.2542 74.2247 45.2593C74.2486 45.2644 74.2794 45.2781 74.3154 45.2952C74.3513 45.3123 74.3924 45.3363 74.4368 45.3654C74.4796 45.3945 74.519 45.4355 74.5549 45.4903C74.5908 45.5433 74.6233 45.61 74.6456 45.6939C74.6695 45.7726 74.6815 45.8735 74.6815 45.9933C74.6918 46.0891 74.6729 46.1969 74.6319 46.3132Z" fill="#0DDEFF"/>
<path d="M45.2822 66.2519L45.1881 56.0941L35.9782 36.8974L35.9918 36.8923L33.0319 30.7466L25.8066 34.2249L28.7666 40.3706L28.7768 40.3672L37.9457 59.4082L45.2822 66.2519ZM40.9809 59.3278L41.1965 57.1617L43.1709 58.2738L44.1427 55.5603L44.4456 56.1848L44.4952 61.9831L42.7056 62.8455L38.5873 59.0232L38.1699 58.1541L40.9809 59.3278ZM28.8966 37.1968L27.8016 34.9247L32.3356 32.7432L33.4323 35.0171L28.8966 37.1968Z" fill="#0DDEFF"/>
<defs>
<filter id="filter0_d" x="0" y="0" width="103" height="103" filterUnits="userSpaceOnUse" color-interpolation-filters="sRGB">
<feFlood flood-opacity="0" result="BackgroundImageFix"/>
<feColorMatrix in="SourceAlpha" type="matrix" values="0 0 0 0 0 0 0 0 0 0 0 0 0 0 0 0 0 0 127 0"/>
<feOffset dy="4"/>
<feGaussianBlur stdDeviation="2"/>
<feColorMatrix type="matrix" values="0 0 0 0 0 0 0 0 0 0 0 0 0 0 0 0 0 0 0.25 0"/>
<feBlend mode="normal" in2="BackgroundImageFix" result="effect1_dropShadow"/>
<feBlend mode="normal" in="SourceGraphic" in2="effect1_dropShadow" result="shape"/>
</filter>
</defs>
</svg>
