<svg width="16" height="16" viewBox="0 0 16 16" fill="none" xmlns="http://www.w3.org/2000/svg">
<path d="M7.998 0C3.58085 0 0 3.58096 0 7.99794C0 12.4149 3.58085 15.9963 7.99794 15.9963C12.415 15.9963 15.9962 12.4151 15.9962 7.99794C15.9962 3.5808 12.4151 0 7.998 0ZM8.5503 8.97596C8.54987 8.99697 8.54673 9.01798 8.54379 9.03904C8.54171 9.05483 8.54075 9.07098 8.53718 9.0865C8.53361 9.10266 8.52748 9.1186 8.52225 9.13476C8.51601 9.15427 8.5102 9.17373 8.50204 9.19213C8.5005 9.19533 8.49996 9.19874 8.49858 9.20194C8.48653 9.22764 8.47256 9.25174 8.45725 9.27456C8.45629 9.27595 8.45501 9.27734 8.45405 9.27872C8.43662 9.30432 8.41673 9.32757 8.39583 9.34937C8.39001 9.35534 8.3841 9.36073 8.37796 9.36638C8.35957 9.38393 8.34021 9.39997 8.31963 9.41464C8.31329 9.41922 8.30721 9.42402 8.30054 9.42845C8.27415 9.44573 8.24647 9.46092 8.21768 9.4734C8.21144 9.47617 8.20494 9.47783 8.19859 9.48033C8.17428 9.48972 8.14964 9.4975 8.12421 9.50342C8.11509 9.50561 8.10608 9.50758 8.0968 9.50923C8.06417 9.5152 8.03111 9.51931 7.99762 9.51931C7.99085 9.51931 7.98392 9.51723 7.97715 9.51696C7.94505 9.51574 7.91327 9.51323 7.88272 9.50673C7.87317 9.50465 7.86379 9.50049 7.85424 9.49787C7.82577 9.49014 7.79793 9.48156 7.77138 9.46967C7.76834 9.46812 7.76514 9.46785 7.7621 9.46647L4.69532 8.01991C4.41901 7.88965 4.30064 7.55996 4.4309 7.28365C4.56117 7.0075 4.89085 6.88896 5.16716 7.01923L7.44484 8.09333V3.3192C7.44484 3.01373 7.69252 2.76605 7.998 2.76605C8.30347 2.76605 8.55115 3.01373 8.55115 3.3192V8.96599H8.55126C8.55126 8.9693 8.5503 8.9726 8.5503 8.97596Z" fill="#0DDEFF"/>
</svg>
